<svg
  width="24"
  height="24"
  viewBox="0 0 24 24"
  fill="none"
  xmlns="http://www.w3.org/2000/svg"
>
  <path
    d="M12 0C9.62663 0 7.30655 0.703788 5.33316 2.02236C3.35977 3.34094 1.8217 5.21509 0.913451 7.4078C0.00519937 9.60051 -0.232441 12.0133 0.230582 14.3411C0.693605 16.6689 1.83649 18.8071 3.51472 20.4853C5.19295 22.1635 7.33115 23.3064 9.65892 23.7694C11.9867 24.2324 14.3995 23.9948 16.5922 23.0866C18.7849 22.1783 20.6591 20.6402 21.9776 18.6668C23.2962 16.6935 24 14.3734 24 12C23.9905 8.82032 22.7232 5.77359 20.4748 3.52521C18.2264 1.27683 15.1797 0.00949636 12 0V0ZM12 18C11.7999 18.012 11.5995 17.9815 11.4121 17.9103C11.2246 17.8392 11.0544 17.7291 10.9126 17.5874C10.7709 17.4456 10.6608 17.2754 10.5897 17.088C10.5185 16.9005 10.488 16.7001 10.5 16.5C10.488 16.2999 10.5185 16.0995 10.5897 15.912C10.6608 15.7246 10.7709 15.5544 10.9126 15.4126C11.0544 15.2709 11.2246 15.1608 11.4121 15.0897C11.5995 15.0185 11.7999 14.988 12 15C12.2001 14.988 12.4005 15.0185 12.588 15.0897C12.7754 15.1608 12.9456 15.2709 13.0874 15.4126C13.2291 15.5544 13.3392 15.7246 13.4104 15.912C13.4815 16.0995 13.512 16.2999 13.5 16.5C13.512 16.7001 13.4815 16.9005 13.4104 17.088C13.3392 17.2754 13.2291 17.4456 13.0874 17.5874C12.9456 17.7291 12.7754 17.8392 12.588 17.9103C12.4005 17.9815 12.2001 18.012 12 18ZM13.5 13.5H10.5V6H13.5V13.5Z"
    fill="#A31000"
  />
</svg>
